<mxfile host="app.diagrams.net" agent="Mozilla/5.0 (Windows NT 10.0; Win64; x64) AppleWebKit/537.36 (KHTML, like Gecko) Chrome/132.0.0.0 Safari/537.36" version="26.0.3">
  <diagram name="Página-1" id="hst4-NiCNWBlW9550_Ff">
    <mxGraphModel dx="1434" dy="772" grid="1" gridSize="10" guides="1" tooltips="1" connect="1" arrows="1" fold="1" page="1" pageScale="1" pageWidth="827" pageHeight="1169" math="0" shadow="0">
      <root>
        <mxCell id="0" />
        <mxCell id="1" parent="0" />
        <mxCell id="n6lQae8gAeIFgk9z8xJi-3" value="" style="edgeStyle=orthogonalEdgeStyle;rounded=0;orthogonalLoop=1;jettySize=auto;html=1;" edge="1" parent="1" source="n6lQae8gAeIFgk9z8xJi-1" target="n6lQae8gAeIFgk9z8xJi-2">
          <mxGeometry relative="1" as="geometry" />
        </mxCell>
        <mxCell id="n6lQae8gAeIFgk9z8xJi-1" value="PRODUTO" style="rounded=0;whiteSpace=wrap;html=1;" vertex="1" parent="1">
          <mxGeometry x="354" y="50" width="120" height="60" as="geometry" />
        </mxCell>
        <mxCell id="n6lQae8gAeIFgk9z8xJi-5" value="" style="edgeStyle=orthogonalEdgeStyle;rounded=0;orthogonalLoop=1;jettySize=auto;html=1;" edge="1" parent="1" source="n6lQae8gAeIFgk9z8xJi-2" target="n6lQae8gAeIFgk9z8xJi-4">
          <mxGeometry relative="1" as="geometry" />
        </mxCell>
        <mxCell id="n6lQae8gAeIFgk9z8xJi-2" value="VALOR" style="rounded=0;whiteSpace=wrap;html=1;" vertex="1" parent="1">
          <mxGeometry x="354" y="120" width="120" height="60" as="geometry" />
        </mxCell>
        <mxCell id="n6lQae8gAeIFgk9z8xJi-7" value="" style="edgeStyle=orthogonalEdgeStyle;rounded=0;orthogonalLoop=1;jettySize=auto;html=1;" edge="1" parent="1" source="n6lQae8gAeIFgk9z8xJi-4" target="n6lQae8gAeIFgk9z8xJi-6">
          <mxGeometry relative="1" as="geometry" />
        </mxCell>
        <mxCell id="n6lQae8gAeIFgk9z8xJi-8" value="" style="edgeStyle=orthogonalEdgeStyle;rounded=0;orthogonalLoop=1;jettySize=auto;html=1;" edge="1" parent="1" source="n6lQae8gAeIFgk9z8xJi-4" target="n6lQae8gAeIFgk9z8xJi-6">
          <mxGeometry relative="1" as="geometry" />
        </mxCell>
        <mxCell id="n6lQae8gAeIFgk9z8xJi-4" value="DESCONTO&lt;div&gt;&lt;br&gt;&lt;/div&gt;" style="rounded=0;whiteSpace=wrap;html=1;" vertex="1" parent="1">
          <mxGeometry x="354" y="190" width="120" height="60" as="geometry" />
        </mxCell>
        <mxCell id="n6lQae8gAeIFgk9z8xJi-12" value="" style="edgeStyle=orthogonalEdgeStyle;rounded=0;orthogonalLoop=1;jettySize=auto;html=1;" edge="1" parent="1" source="n6lQae8gAeIFgk9z8xJi-6" target="n6lQae8gAeIFgk9z8xJi-11">
          <mxGeometry relative="1" as="geometry" />
        </mxCell>
        <mxCell id="n6lQae8gAeIFgk9z8xJi-6" value="PREÇO FINAL = VALOR - DESCONTO" style="rounded=0;whiteSpace=wrap;html=1;" vertex="1" parent="1">
          <mxGeometry x="280" y="280" width="270" height="60" as="geometry" />
        </mxCell>
        <mxCell id="n6lQae8gAeIFgk9z8xJi-14" value="" style="edgeStyle=orthogonalEdgeStyle;rounded=0;orthogonalLoop=1;jettySize=auto;html=1;" edge="1" parent="1" source="n6lQae8gAeIFgk9z8xJi-11" target="n6lQae8gAeIFgk9z8xJi-13">
          <mxGeometry relative="1" as="geometry" />
        </mxCell>
        <mxCell id="n6lQae8gAeIFgk9z8xJi-11" value="PRODUTO&lt;div&gt;VALOR&lt;/div&gt;&lt;div&gt;DESCONTO&lt;/div&gt;&lt;div&gt;PRECOFINAL&lt;/div&gt;" style="rounded=0;whiteSpace=wrap;html=1;" vertex="1" parent="1">
          <mxGeometry x="280" y="370" width="270" height="60" as="geometry" />
        </mxCell>
        <mxCell id="n6lQae8gAeIFgk9z8xJi-13" value="FIM" style="whiteSpace=wrap;html=1;rounded=0;" vertex="1" parent="1">
          <mxGeometry x="355" y="440" width="120" height="60" as="geometry" />
        </mxCell>
      </root>
    </mxGraphModel>
  </diagram>
</mxfile>
